<svg xmlns="http://www.w3.org/2000/svg" xmlns:xlink="http://www.w3.org/1999/xlink"
    xmlns:serif="http://www.serif.com/" width="600px" height="385px" xml:space="preserve"
    style="fill-rule:evenodd;clip-rule:evenodd;stroke-linejoin:round;stroke-miterlimit:2;"><path d="M618.724,423.031c-7.125,-15.758 -48.477,-84.926 -68.636,-118.41c-6.93,-11.695 -18.027,-20.335 -31.063,-24.188c-76.555,-22.644 -346.576,-102.451 -346.576,-102.451c-15.984,-7.511 -35.059,-0.631 -42.57,15.353l-114.382,243.431c-7.51,15.984 -0.631,35.06 15.354,42.571l430.921,202.478c15.985,7.51 35.06,0.631 42.571,-15.354l114.381,-243.43Z" style="fill:#fecc00;"></path><path d="M558.724,381.031c-7.125,-15.758 -48.477,-84.926 -68.636,-118.41c-6.93,-11.695 -18.027,-20.335 -31.063,-24.188c-76.555,-22.644 -346.576,-102.451 -346.576,-102.451c-15.984,-7.511 -35.059,-0.631 -42.57,15.353l-114.382,243.431c-7.51,15.984 -0.631,35.06 15.354,42.571l430.921,202.478c15.985,7.51 35.06,0.631 42.571,-15.354l114.381,-243.43Z" style="fill:#e4032f;"></path></svg>